<?xml version="1.0" standalone="no"?>
<!DOCTYPE svg PUBLIC "-//W3C//DTD SVG 20010904//EN"
 "http://www.w3.org/TR/2001/REC-SVG-20010904/DTD/svg10.dtd">
<svg version="1.0" xmlns="http://www.w3.org/2000/svg"
 width="16.000000pt" height="16.000000pt" viewBox="0 0 16.000000 16.000000"
 preserveAspectRatio="xMidYMid meet">
<metadata>
Created by potrace 1.11, written by Peter Selinger 2001-2013
</metadata>
<g transform="translate(0.000000,16.000000) scale(0.002000,-0.002000)"
fill="#000000" stroke="none">
<path d="M3735 7979 c-1307 -87 -2492 -812 -3164 -1934 -298 -498 -478 -1034
-547 -1630 -24 -207 -24 -633 0 -840 40 -344 117 -673 227 -964 21 -58 39
-108 39 -112 0 -4 -24 -10 -52 -12 l-53 -3 58 -2 58 -2 22 -52 c46 -113 163
-340 248 -483 620 -1038 1674 -1734 2884 -1905 808 -114 1660 34 2391 414 659
343 1205 857 1583 1491 85 143 202 370 248 482 21 50 24 53 60 55 37 1 37 1 6
5 -18 2 -33 8 -33 12 0 4 18 54 39 112 110 291 187 620 227 964 13 107 18 228
18 420 0 290 -14 455 -60 705 -119 657 -397 1269 -812 1788 -812 1017 -2086
1578 -3387 1491z"/>
</g>
</svg>
